<svg width="1440" height="739" viewBox="0 0 1440 739" fill="none" xmlns="http://www.w3.org/2000/svg">
<mask id="mask0_1_27" style="mask-type:luminance" maskUnits="userSpaceOnUse" x="-57" y="0" width="1553" height="739">
<path d="M-56.7605 0H1495.76V739H-56.7605V0Z" fill="white"/>
</mask>
<g mask="url(#mask0_1_27)">
<path d="M-56.7605 0H1495.76V739H-56.7605V0Z" fill="#0F0F0F"/>
<mask id="mask1_1_27" style="mask-type:alpha" maskUnits="userSpaceOnUse" x="832" y="0" width="665" height="739">
<path d="M906.191 369.112H979.935M906.191 369.112V442.857M906.191 369.112H832.446M906.191 369.112V295.367M979.935 369.112V442.857M979.935 369.112V295.367M979.935 369.112H1053.68M979.935 442.857H906.191M979.935 442.857V516.601M979.935 442.857H1053.68M906.191 442.857H832.446M906.191 442.857V516.601M832.446 369.112V442.857M832.446 369.112V295.367M832.446 442.857V516.601M979.935 516.601H906.191M979.935 516.601V590.346M979.935 516.601H1053.68M906.191 516.601V590.346M906.191 516.601H832.446M979.935 590.346H906.191M979.935 590.346V664.091M979.935 590.346H1053.68M906.191 590.346V664.091M906.191 590.346H832.446M979.935 664.091H906.191M979.935 664.091V737.836M979.935 664.091H1053.68M906.191 664.091V737.836M906.191 664.091H832.446M979.935 737.836H906.191M979.935 737.836H1053.68M906.191 737.836H832.446V664.091M832.446 516.601V590.346M832.446 590.346V664.091M906.191 295.367H979.935M906.191 295.367H832.446M906.191 295.367V221.622M979.935 295.367V221.622M979.935 295.367H1053.68M832.446 295.367V221.622M906.191 221.622H979.935M906.191 221.622H832.446M906.191 221.622V147.878M979.935 221.622V147.878M979.935 221.622H1053.68M832.446 221.622V147.878M906.191 147.878H979.935M906.191 147.878H832.446M906.191 147.878V74.1329M979.935 147.878V74.1329M979.935 147.878H1053.68M832.446 147.878V74.1329M906.191 74.1329H979.935M906.191 74.1329H832.446M906.191 74.1329V0.388138M979.935 74.1329V0.388138M979.935 74.1329H1053.68M832.446 74.1329V0.388138H906.191M906.191 0.388138H979.935M979.935 0.388138H1053.68M1053.68 369.112V442.857M1053.68 369.112V295.367M1053.68 369.112H1127.42M1053.68 442.857V516.601M1053.68 442.857H1127.42M1053.68 516.601V590.346M1053.68 516.601H1127.42M1053.68 590.346V664.091M1053.68 590.346H1127.42M1053.68 664.091V737.836M1053.68 664.091H1127.42M1053.68 737.836H1127.42M1053.68 295.367V221.622M1053.68 295.367H1127.42M1053.68 221.622V147.878M1053.68 221.622H1127.42M1053.68 147.878V74.1329M1053.68 147.878H1127.42M1053.68 74.1329V0.388138M1053.68 74.1329H1127.42M1053.68 0.388138H1127.42M1127.42 369.112V442.857M1127.42 369.112V295.367M1127.42 369.112H1201.17M1127.42 442.857V516.601M1127.42 442.857H1201.17M1127.42 516.601V590.346M1127.42 516.601H1201.17M1127.42 590.346V664.091M1127.42 590.346H1201.17M1127.42 664.091V737.836M1127.42 664.091H1201.17M1127.42 737.836H1201.17M1201.17 516.601V590.346M1201.17 516.601H1274.91M1201.17 516.601V442.857M1201.17 590.346H1274.91M1201.17 590.346V664.091M1274.91 516.601V590.346M1274.91 516.601H1348.66M1274.91 516.601V442.857M1274.91 590.346H1348.66M1274.91 590.346V664.091M1348.66 516.601V590.346M1348.66 516.601H1422.4M1348.66 516.601V442.857M1348.66 590.346H1422.4M1348.66 590.346V664.091M1422.4 516.601V590.346M1422.4 516.601H1496.15M1422.4 516.601V442.857M1422.4 590.346H1496.15M1422.4 590.346V664.091M1496.15 516.601V590.346M1496.15 516.601V442.857M1496.15 590.346V664.091M1201.17 442.857H1274.91M1201.17 442.857V369.112M1274.91 442.857H1348.66M1274.91 442.857V369.112M1348.66 442.857H1422.4M1348.66 442.857V369.112M1422.4 442.857H1496.15M1422.4 442.857V369.112M1496.15 442.857V369.112M1201.17 664.091H1274.91M1201.17 664.091V737.836M1274.91 664.091H1348.66M1274.91 664.091V737.836M1348.66 664.091H1422.4M1348.66 664.091V737.836M1422.4 664.091H1496.15M1422.4 664.091V737.836M1496.15 664.091V737.836H1422.4M1201.17 737.836H1274.91M1274.91 737.836H1348.66M1348.66 737.836H1422.4M1127.42 295.367V221.622M1127.42 295.367H1201.17M1127.42 221.622V147.878M1127.42 221.622H1201.17M1127.42 147.878V74.1329M1127.42 147.878H1201.17M1127.42 74.1329V0.388138M1127.42 74.1329H1201.17M1127.42 0.388138H1201.17M1201.17 369.112H1274.91M1201.17 369.112V295.367M1274.91 369.112H1348.66M1274.91 369.112V295.367M1348.66 369.112H1422.4M1348.66 369.112V295.367M1422.4 369.112H1496.15M1422.4 369.112V295.367M1496.15 369.112V295.367M1201.17 295.367H1274.91M1201.17 295.367V221.622M1274.91 295.367H1348.66M1274.91 295.367V221.622M1348.66 295.367H1422.4M1348.66 295.367V221.622M1422.4 295.367H1496.15M1422.4 295.367V221.622M1496.15 295.367V221.622M1201.17 221.622H1274.91M1201.17 221.622V147.878M1274.91 221.622H1348.66M1274.91 221.622V147.878M1348.66 221.622H1422.4M1348.66 221.622V147.878M1422.4 221.622H1496.15M1422.4 221.622V147.878M1496.15 221.622V147.878M1201.17 147.878H1274.91M1201.17 147.878V74.1329M1274.91 147.878H1348.66M1274.91 147.878V74.1329M1348.66 147.878H1422.4M1348.66 147.878V74.1329M1422.4 147.878H1496.15M1422.4 147.878V74.1329M1496.15 147.878V74.1329M1201.17 74.1329H1274.91M1201.17 74.1329V0.388138M1274.91 74.1329H1348.66M1274.91 74.1329V0.388138M1348.66 74.1329H1422.4M1348.66 74.1329V0.388138M1422.4 74.1329H1496.15M1422.4 74.1329V0.388138M1496.15 74.1329V0.388138H1422.4M1201.17 0.388138H1274.91M1274.91 0.388138H1348.66M1348.66 0.388138H1422.4" stroke="#151515" stroke-width="0.77626"/>
<path d="M1054.07 222.01H1127.04V294.979H1054.07V222.01ZM980.324 369.5H1053.29V442.468H980.324V369.5ZM1127.81 443.245H1200.78V516.213H1127.81V443.245Z" fill="#070707" fill-opacity="0.3"/>
</mask>
<g mask="url(#mask1_1_27)">
<path d="M1204.66 829.822C1480.76 829.822 1704.57 618.864 1704.57 358.632C1704.57 98.4012 1480.76 -112.558 1204.66 -112.558C928.569 -112.558 704.751 98.4012 704.751 358.632C704.751 618.864 928.569 829.822 1204.66 829.822Z" fill="url(#paint0_radial_1_27)"/>
<path d="M1064.94 466.533C1170.83 466.533 1256.67 387.466 1256.67 289.933C1256.67 192.4 1170.83 113.334 1064.94 113.334C959.043 113.334 873.2 192.4 873.2 289.933C873.2 387.466 959.043 466.533 1064.94 466.533Z" fill="url(#paint1_radial_1_27)"/>
</g>
<mask id="mask2_1_27" style="mask-type:alpha" maskUnits="userSpaceOnUse" x="-58" y="0" width="665" height="739">
<path d="M532.809 369.112H459.065M532.809 369.112V442.857M532.809 369.112H606.554M532.809 369.112V295.367M459.065 369.112V442.857M459.065 369.112V295.367M459.065 369.112H385.32M459.065 442.857H532.809M459.065 442.857V516.601M459.065 442.857H385.32M532.809 442.857H606.554M532.809 442.857V516.601M606.554 369.112V442.857M606.554 369.112V295.367M606.554 442.857V516.601M459.065 516.601H532.809M459.065 516.601V590.346M459.065 516.601H385.32M532.809 516.601V590.346M532.809 516.601H606.554M459.065 590.346H532.809M459.065 590.346V664.091M459.065 590.346H385.32M532.809 590.346V664.091M532.809 590.346H606.554M459.065 664.091H532.809M459.065 664.091V737.836M459.065 664.091H385.32M532.809 664.091V737.836M532.809 664.091H606.554M459.065 737.836H532.809M459.065 737.836H385.32M532.809 737.836H606.554V664.091M606.554 516.601V590.346M606.554 590.346V664.091M532.809 295.367H459.065M532.809 295.367H606.554M532.809 295.367V221.622M459.065 295.367V221.622M459.065 295.367H385.32M606.554 295.367V221.622M532.809 221.622H459.065M532.809 221.622H606.554M532.809 221.622V147.878M459.065 221.622V147.878M459.065 221.622H385.32M606.554 221.622V147.878M532.809 147.878H459.065M532.809 147.878H606.554M532.809 147.878V74.1329M459.065 147.878V74.1329M459.065 147.878H385.32M606.554 147.878V74.1329M532.809 74.1329H459.065M532.809 74.1329H606.554M532.809 74.1329V0.388138M459.065 74.1329V0.388138M459.065 74.1329H385.32M606.554 74.1329V0.388138H532.809M532.809 0.388138H459.065M459.065 0.388138H385.32M385.32 369.112V442.857M385.32 369.112V295.367M385.32 369.112H311.575M385.32 442.857V516.601M385.32 442.857H311.575M385.32 516.601V590.346M385.32 516.601H311.575M385.32 590.346V664.091M385.32 590.346H311.575M385.32 664.091V737.836M385.32 664.091H311.575M385.32 737.836H311.575M385.32 295.367V221.622M385.32 295.367H311.575M385.32 221.622V147.878M385.32 221.622H311.575M385.32 147.878V74.1329M385.32 147.878H311.575M385.32 74.1329V0.388138M385.32 74.1329H311.575M385.32 0.388138H311.575M311.575 369.112V442.857M311.575 369.112V295.367M311.575 369.112H237.83M311.575 442.857V516.601M311.575 442.857H237.83M311.575 516.601V590.346M311.575 516.601H237.83M311.575 590.346V664.091M311.575 590.346H237.83M311.575 664.091V737.836M311.575 664.091H237.83M311.575 737.836H237.83M237.83 516.601V590.346M237.83 516.601H164.086M237.83 516.601V442.857M237.83 590.346H164.086M237.83 590.346V664.091M164.086 516.601V590.346M164.086 516.601H90.3409M164.086 516.601V442.857M164.086 590.346H90.3409M164.086 590.346V664.091M90.3409 516.601V590.346M90.3409 516.601H16.5961M90.3409 516.601V442.857M90.3409 590.346H16.5961M90.3409 590.346V664.091M16.5961 516.601V590.346M16.5961 516.601H-57.1486M16.5961 516.601V442.857M16.5961 590.346H-57.1486M16.5961 590.346V664.091M-57.1486 516.601V590.346M-57.1486 516.601V442.857M-57.1486 590.346V664.091M237.83 442.857H164.086M237.83 442.857V369.112M164.086 442.857H90.3409M164.086 442.857V369.112M90.3409 442.857H16.5961M90.3409 442.857V369.112M16.5961 442.857H-57.1486M16.5961 442.857V369.112M-57.1486 442.857V369.112M237.83 664.091H164.086M237.83 664.091V737.836M164.086 664.091H90.3409M164.086 664.091V737.836M90.3409 664.091H16.5961M90.3409 664.091V737.836M16.5961 664.091H-57.1486M16.5961 664.091V737.836M-57.1486 664.091V737.836H16.5961M237.83 737.836H164.086M164.086 737.836H90.3409M90.3409 737.836H16.5961M311.575 295.367V221.622M311.575 295.367H237.83M311.575 221.622V147.878M311.575 221.622H237.83M311.575 147.878V74.1329M311.575 147.878H237.83M311.575 74.1329V0.388138M311.575 74.1329H237.83M311.575 0.388138H237.83M237.83 369.112H164.086M237.83 369.112V295.367M164.086 369.112H90.3409M164.086 369.112V295.367M90.3409 369.112H16.5961M90.3409 369.112V295.367M16.5961 369.112H-57.1486M16.5961 369.112V295.367M-57.1486 369.112V295.367M237.83 295.367H164.086M237.83 295.367V221.622M164.086 295.367H90.3409M164.086 295.367V221.622M90.3409 295.367H16.5961M90.3409 295.367V221.622M16.5961 295.367H-57.1486M16.5961 295.367V221.622M-57.1486 295.367V221.622M237.83 221.622H164.086M237.83 221.622V147.878M164.086 221.622H90.3409M164.086 221.622V147.878M90.3409 221.622H16.5961M90.3409 221.622V147.878M16.5961 221.622H-57.1486M16.5961 221.622V147.878M-57.1486 221.622V147.878M237.83 147.878H164.086M237.83 147.878V74.1329M164.086 147.878H90.3409M164.086 147.878V74.1329M90.3409 147.878H16.5961M90.3409 147.878V74.1329M16.5961 147.878H-57.1486M16.5961 147.878V74.1329M-57.1486 147.878V74.1329M237.83 74.1329H164.086M237.83 74.1329V0.388138M164.086 74.1329H90.3409M164.086 74.1329V0.388138M90.3409 74.1329H16.5961M90.3409 74.1329V0.388138M16.5961 74.1329H-57.1486M16.5961 74.1329V0.388138M-57.1486 74.1329V0.388138H16.5961M237.83 0.388138H164.086M164.086 0.388138H90.3409M90.3409 0.388138H16.5961" stroke="#151515" stroke-width="0.77626"/>
<path d="M384.932 222.01H311.963V294.979H384.932V222.01ZM458.676 369.5H385.708V442.468H458.676V369.5ZM311.187 443.245H238.219V516.213H311.187V443.245Z" fill="#070707" fill-opacity="0.3"/>
</mask>
<g mask="url(#mask2_1_27)">
<path d="M234.337 829.822C-41.7565 829.822 -265.575 618.864 -265.575 358.632C-265.575 98.4012 -41.7565 -112.558 234.337 -112.558C510.431 -112.558 734.249 98.4012 734.249 358.632C734.249 618.864 510.431 829.822 234.337 829.822Z" fill="url(#paint2_radial_1_27)"/>
<path d="M374.064 466.533C268.171 466.533 182.328 387.466 182.328 289.933C182.328 192.4 268.171 113.334 374.064 113.334C479.957 113.334 565.8 192.4 565.8 289.933C565.8 387.466 479.957 466.533 374.064 466.533Z" fill="url(#paint3_radial_1_27)"/>
</g>
<g filter="url(#filter0_f_1_27)">
<path d="M166.507 343.32C285.527 391.41 523 444.099 523 444.099C976.83 577.926 404.149 336.275 285.129 288.185C166.109 240.096 -130.613 150.97 -140.985 176.64C-151.356 202.309 47.4866 295.23 166.507 343.32Z" fill="url(#paint4_linear_1_27)"/>
</g>
</g>
<defs>
<filter id="filter0_f_1_27" x="-219.001" y="94.4614" width="991.932" height="467.173" filterUnits="userSpaceOnUse" color-interpolation-filters="sRGB">
<feFlood flood-opacity="0" result="BackgroundImageFix"/>
<feBlend mode="normal" in="SourceGraphic" in2="BackgroundImageFix" result="shape"/>
<feGaussianBlur stdDeviation="38.813" result="effect1_foregroundBlur_1_27"/>
</filter>
<radialGradient id="paint0_radial_1_27" cx="0" cy="0" r="1" gradientUnits="userSpaceOnUse" gradientTransform="translate(1204.66 358.632) rotate(90) scale(471.19 499.912)">
<stop stop-color="#6F6F6F" stop-opacity="0.2"/>
<stop offset="1" stop-opacity="0"/>
</radialGradient>
<radialGradient id="paint1_radial_1_27" cx="0" cy="0" r="1" gradientUnits="userSpaceOnUse" gradientTransform="translate(1064.94 289.933) rotate(90) scale(176.599 191.736)">
<stop stop-color="#6F6F6F" stop-opacity="0.2"/>
<stop offset="1" stop-opacity="0"/>
</radialGradient>
<radialGradient id="paint2_radial_1_27" cx="0" cy="0" r="1" gradientUnits="userSpaceOnUse" gradientTransform="translate(234.337 358.632) rotate(90) scale(471.19 499.912)">
<stop stop-color="#6F6F6F" stop-opacity="0.2"/>
<stop offset="1" stop-opacity="0"/>
</radialGradient>
<radialGradient id="paint3_radial_1_27" cx="0" cy="0" r="1" gradientUnits="userSpaceOnUse" gradientTransform="translate(374.064 289.933) rotate(90) scale(176.599 191.736)">
<stop stop-color="#6F6F6F" stop-opacity="0.2"/>
<stop offset="1" stop-opacity="0"/>
</radialGradient>
<linearGradient id="paint4_linear_1_27" x1="25.3322" y1="72.2823" x2="617.437" y2="311.521" gradientUnits="userSpaceOnUse">
<stop stop-color="white" stop-opacity="0.15"/>
<stop offset="1" stop-color="#D0D0D0" stop-opacity="0.1"/>
</linearGradient>
</defs>
</svg>
